<svg width="23" height="24" viewBox="0 0 23 24" fill="none" xmlns="http://www.w3.org/2000/svg">
<path d="M13.4167 5.00006C13.6406 4.9996 13.8576 5.08098 14.03 5.23006C14.1271 5.31401 14.2073 5.41711 14.2661 5.53346C14.3249 5.64981 14.3611 5.77711 14.3727 5.90809C14.3842 6.03906 14.3709 6.17114 14.3335 6.29674C14.2961 6.42234 14.2353 6.53901 14.1546 6.64006L9.86127 12.0001L14.0013 17.3701C14.0809 17.4723 14.1403 17.59 14.1762 17.7164C14.2121 17.8427 14.2237 17.9752 14.2103 18.1062C14.1969 18.2373 14.1589 18.3643 14.0984 18.4799C14.0378 18.5955 13.956 18.6975 13.8575 18.7801C13.7584 18.8711 13.6423 18.9398 13.5165 18.9818C13.3907 19.0237 13.2579 19.0381 13.1265 19.0241C12.9952 19.01 12.868 18.9677 12.753 18.8999C12.638 18.8321 12.5377 18.7402 12.4584 18.6301L7.82961 12.6301C7.68865 12.4511 7.6116 12.2267 7.6116 11.9951C7.6116 11.7634 7.68865 11.539 7.82961 11.3601L12.6213 5.36006C12.7174 5.23904 12.8395 5.14338 12.9777 5.08083C13.1159 5.01828 13.2663 4.99061 13.4167 5.00006Z" fill="#262626"/>
</svg>
