<svg width="14" height="14" viewBox="0 0 14 14" fill="none" xmlns="http://www.w3.org/2000/svg">
<rect width="14" height="14" rx="7" fill="#F5F5F6"/>
<path fill-rule="evenodd" clip-rule="evenodd" d="M10.4663 7.76843C10.7729 7.80077 11.0785 7.82597 11.3866 7.84145C11.4608 7.54196 11.5 7.22955 11.5 6.90838C11.5 6.611 11.4663 6.32109 11.4025 6.0422C11.1282 6.64088 10.8137 7.21812 10.4663 7.76843ZM10.3936 4.19045C10.6737 4.47933 10.9095 4.8103 11.0905 5.17215C10.7152 6.04885 10.2546 6.88213 9.71913 7.66152C9.33375 7.59761 8.95328 7.5187 8.57848 7.42549C9.31553 6.43501 9.9281 5.34916 10.3936 4.19045ZM10.9725 8.86035C10.2851 10.0475 8.98669 10.8512 7.50415 10.8512C6.59242 10.8512 5.69784 10.539 4.99144 9.97013C4.45435 10.3601 3.8865 10.7174 3.29517 11.0345C3.02134 10.81 2.78446 10.5563 2.5 10.3272C3.11599 9.99753 3.7062 9.62527 4.26591 9.21411C3.78957 8.5647 3.50834 7.76793 3.50834 6.90838C3.50834 4.73676 5.30331 2.96558 7.50415 2.96558C8.40125 2.96558 9.23089 3.25986 9.899 3.75568C9.02443 5.8728 7.63119 7.78962 5.87134 9.27803C6.336 9.60553 6.93644 9.77562 7.50415 9.77562C8.39683 9.77562 9.19772 9.37496 9.73157 8.74651C10.1395 8.8018 10.5526 8.84043 10.9725 8.86035ZM5.11664 8.54095C6.52354 7.35393 7.70174 5.86914 8.5556 4.25041C8.55758 4.2467 8.55946 4.24258 8.56159 4.23819C8.55672 4.23631 8.55263 4.23464 8.54794 4.23285C8.22374 4.10907 7.87173 4.04114 7.50415 4.04114C5.90363 4.04114 4.59837 5.32911 4.59837 6.90838C4.59837 7.51438 4.79003 8.0786 5.11664 8.54095Z" fill="#C5E319"/>
</svg>
