<svg width="16" height="16" viewBox="0 0 16 16" fill="none" xmlns="http://www.w3.org/2000/svg">
<rect width="16" height="16" rx="8" fill="#F5F5F6"/>
<path fill-rule="evenodd" clip-rule="evenodd" d="M7.73247 4.72213L7.82611 4.38575C8.07484 3.49516 8.96442 3.1988 9.79547 3.23732C10.7231 3.2803 11.3917 3.53666 11.6229 4.5369L12.6881 9.1321L12.9207 10.0123C13.247 11.2497 12.5432 12.3536 11.2381 12.361C10.5051 12.3655 9.96666 12.1417 9.6199 11.6794C9.35215 12.2084 8.89565 12.5996 8.25481 12.6011C7.56568 12.6026 7.12235 12.3329 6.80339 11.8202C6.44493 12.5063 5.74263 12.8471 4.86184 12.8649C4.32926 12.8263 3.96933 12.6574 3.77181 12.5433C3.58746 12.4366 3.49821 12.3507 3.4748 12.327C3.21436 12.0691 3.14852 11.7609 3.07537 11.4779C2.97149 11.0733 2.9949 10.7206 3.02855 10.4984L3.46748 4.97849C3.55966 3.82858 4.20929 3.1899 5.36076 3.141C6.32788 3.09951 7.05359 3.25955 7.49838 4.21682L7.73394 4.72213H7.73247ZM10.9411 4.6999L12.0077 9.30547L12.2418 10.1961C12.4598 11.0007 12.0604 11.6468 11.2323 11.6512C10.4202 11.6572 10.072 11.3356 9.90228 10.5443L9.66379 9.24472L9.10634 11.0733C8.98783 11.5075 8.70837 11.8898 8.25188 11.8913C7.71784 11.8928 7.48813 11.6735 7.24233 11.1459L6.4698 9.36623L6.35129 10.8451C6.21815 11.8528 5.59339 12.1565 4.78429 12.1565C4.65993 12.1565 4.54727 12.1432 4.44777 12.1195C4.44777 12.1195 4.3556 12.1002 4.34389 12.081C4.3556 12.1002 4.23855 12.0424 4.23855 12.0424C3.81863 11.8261 3.68695 11.3104 3.72646 10.5576L4.16539 5.03628C4.21075 4.31759 4.52532 3.9249 5.38856 3.85081C6.18596 3.85081 6.57222 3.91601 6.86192 4.51912L7.89488 6.74485L8.50061 4.57987C8.66302 4.12198 9.13999 3.91897 9.76182 3.94713C10.4509 3.97973 10.7889 4.0879 10.9396 4.6999H10.9411ZM11.5907 8.5112L11.2644 7.10197L8.80787 4.66582L8.56938 5.51492L11.5907 8.50972V8.5112ZM9.58332 8.69051L9.78523 8.03109L9.9769 9.08171L11.9887 11.0763C12.0999 10.8792 12.116 10.6139 12.0384 10.3205L11.9389 9.94118L8.33235 6.36401L8.09533 7.21311L9.58332 8.68903V8.69051ZM10.2198 10.408L10.2446 10.5443C10.3632 11.1933 10.6148 11.4112 11.241 11.4215L10.2198 10.4094V10.408ZM10.9382 5.69274L10.7172 4.74139C10.6865 4.60951 10.6368 4.45836 10.5285 4.36945C10.3617 4.2346 10.0018 4.2183 9.7984 4.20793C9.69744 4.20349 9.576 4.20497 9.45456 4.21979L10.9396 5.69126L10.9382 5.69274ZM5.39148 4.11161C5.2481 4.11754 5.1252 4.13384 5.01839 4.16348L7.5686 6.69298L6.63514 4.68064L6.09963 4.15014C5.87139 4.09235 5.59047 4.10272 5.39148 4.11161ZM4.48435 4.71917C4.46094 4.81252 4.44338 4.91773 4.43461 5.03776L4.38193 5.70311L9.07562 10.3576L9.3302 9.52479L4.48435 4.71917ZM4.30146 6.70928L4.22099 7.71545L6.15962 9.63741L6.24009 8.63272L4.30146 6.70928ZM6.63221 9.02096L7.45741 10.9251L8.20067 11.6616C8.22554 11.6616 8.25188 11.6631 8.27968 11.6631C8.55475 11.6631 8.72008 11.426 8.81518 11.1859L6.63221 9.02096ZM4.14052 8.72163L4.06005 9.7278L5.85822 11.5105C5.96795 11.3534 6.03818 11.1474 6.05867 10.8777L6.07769 10.6436L4.13906 8.72163H4.14052ZM3.9825 10.7355C3.96348 11.0674 3.97958 11.5327 4.21514 11.7594C4.35999 11.8987 4.5736 11.9328 4.76673 11.9328C4.90719 11.9328 5.03887 11.9239 5.16031 11.9031L3.9825 10.7355Z" fill="#2F80ED"/>
</svg>
