<svg width="14" height="14" viewBox="0 0 14 14" fill="none" xmlns="http://www.w3.org/2000/svg">
<rect width="14" height="14" rx="7" fill="#F5F5F6"/>
<path d="M10.9646 4.68473C10.9462 4.53203 10.9075 4.38242 10.8495 4.23982C10.7687 4.03401 10.6129 3.86585 10.413 3.76866C10.2548 3.69315 10.0818 3.65327 9.90635 3.65186C9.69556 3.6585 9.49044 3.7212 9.31242 3.8334C9.13441 3.94561 8.99005 4.1032 8.89442 4.2897C8.81373 4.43144 8.6841 4.69917 8.49758 5.07715C8.3362 5.41444 8.14572 5.81867 7.95789 6.22158H9.31242C9.41163 6.01028 9.50687 5.80817 9.59285 5.62837C9.65899 5.49712 9.77936 5.54569 9.77804 5.64806V6.16384C9.77738 6.17301 9.77738 6.18222 9.77804 6.1914V10.0932C9.77697 10.1591 9.80226 10.2228 9.84837 10.2703C9.89447 10.3177 9.95765 10.3452 10.0241 10.3465H10.7529C10.8194 10.3452 10.8825 10.3177 10.9286 10.2703C10.9747 10.2228 11 10.1591 10.999 10.0932V5.55487C11.0039 5.26435 10.9915 4.9738 10.9619 4.68473H10.9646Z" fill="#F08A00"/>
<path d="M7.08876 8.09481C7.03453 8.19193 6.95649 8.18274 6.90887 8.09481C6.90887 8.09481 6.51864 7.24961 6.10064 6.35716C5.89164 5.91093 5.67471 5.4529 5.49613 5.08017C5.31755 4.70744 5.18528 4.43446 5.10591 4.29271C4.89558 3.89899 4.46171 3.6365 4.09265 3.65619C3.9173 3.65753 3.74438 3.69695 3.58603 3.77168C3.38603 3.86939 3.23026 4.03799 3.14951 4.24416C3.07078 4.45459 3.02613 4.67607 3.01723 4.90037C3.00135 5.11692 3.00003 5.33872 3.00003 5.55658V10.0949C2.99951 10.1278 3.00553 10.1604 3.01776 10.191C3.02999 10.2215 3.04819 10.2493 3.0713 10.2729C3.09441 10.2964 3.12198 10.3152 3.15243 10.3281C3.18287 10.3411 3.2156 10.3479 3.24872 10.3482H3.97625C4.04268 10.3469 4.10585 10.3194 4.15196 10.272C4.19806 10.2245 4.22335 10.1609 4.22229 10.0949V5.6327C4.22229 5.5277 4.33869 5.48965 4.40219 5.62614C4.90352 6.67608 5.72497 8.43473 5.80037 8.60928C5.8691 8.77164 5.9491 8.92907 6.03979 9.08044C6.12412 9.2242 6.22682 9.35654 6.34536 9.47417C6.42895 9.56591 6.53099 9.63925 6.64492 9.68944C6.75884 9.73963 6.8821 9.76556 7.00675 9.76556C7.1314 9.76556 7.25467 9.73963 7.36859 9.68944C7.48251 9.63925 7.58456 9.56591 7.66814 9.47417C7.83311 9.30462 7.97056 9.1107 8.07556 8.89932C8.14302 8.76808 8.18932 8.66046 8.20784 8.61453C8.25678 8.51084 8.62055 7.72339 9.00151 6.89525C9.0121 6.87163 9.02268 6.84932 9.03194 6.82701H7.68005C7.35993 7.51078 7.10199 8.06987 7.08876 8.09349V8.09481Z" fill="#0100D2"/>
</svg>
