<svg width="20" height="20" viewBox="0 0 20 20" fill="none" xmlns="http://www.w3.org/2000/svg">
<path d="M10 20C15.5228 20 20 15.5228 20 10C20 4.47715 15.5228 0 10 0C4.47715 0 0 4.47715 0 10C0 15.5228 4.47715 20 10 20Z" fill="#DCDCDC"/>
<path d="M9.99997 18.0993C14.4731 18.0993 18.0993 14.4731 18.0993 9.99997C18.0993 5.52683 14.4731 1.90063 9.99997 1.90063C5.52683 1.90063 1.90063 5.52683 1.90063 9.99997C1.90063 14.4731 5.52683 18.0993 9.99997 18.0993Z" fill="#F5F5F5"/>
<path d="M12.4062 7.86865H9.6377L9.42236 9.10791L10.2617 9.1123C10.9619 9.11523 11.5112 9.29688 11.9097 9.65723C12.3081 10.0176 12.4854 10.4966 12.4414 11.0942C12.3945 11.73 12.1279 12.2397 11.6416 12.6235C11.1553 13.0073 10.5356 13.1992 9.78271 13.1992H7.40967L8.52148 6.80078H12.5908L12.4062 7.86865ZM9.23779 10.1714L8.89502 12.1401L9.83545 12.1445C10.1753 12.1445 10.4668 12.0493 10.71 11.8589C10.9561 11.6655 11.104 11.4062 11.1538 11.0811C11.1919 10.8145 11.1377 10.6006 10.9912 10.4395C10.8447 10.2754 10.6235 10.1875 10.3276 10.1758L9.23779 10.1714Z" fill="#DCDCDC"/>
</svg>
