<svg width="10" height="10" viewBox="0 0 10 10" fill="none" xmlns="http://www.w3.org/2000/svg">
<path d="M5 0C7.76142 6.44256e-08 10 2.23858 10 5C10 7.76142 7.76142 10 5 10C2.23858 10 6.44277e-08 7.76142 0 5C0 2.23858 2.23858 0 5 0ZM3.81152 2.30371L2.88477 7.63574H4.8623C5.48961 7.63571 6.00592 7.47599 6.41113 7.15625C6.81638 6.83645 7.03904 6.41157 7.07812 5.88184C7.11474 5.38394 6.96659 4.98483 6.63477 4.68457C6.30282 4.38435 5.84501 4.23298 5.26172 4.23047L4.56152 4.22656L4.74121 3.19336H7.04883L7.20215 2.30371H3.81152ZM5.31641 5.11621C5.56284 5.126 5.7471 5.19931 5.86914 5.33594C5.99121 5.47021 6.03662 5.64893 6.00488 5.87109C5.96334 6.14187 5.83967 6.3575 5.63477 6.51855C5.43218 6.67721 5.18937 6.7568 4.90625 6.75684L4.12207 6.75293L4.4082 5.1123L5.31641 5.11621Z" fill="#8E8E8E"/>
</svg>
