<svg width="12" height="12" viewBox="0 0 12 12" fill="none" xmlns="http://www.w3.org/2000/svg">
<path d="M6 0C9.31371 0 12 2.68629 12 6C12 9.31371 9.31371 12 6 12C2.68629 12 0 9.31371 0 6C0 2.68629 2.68629 0 6 0ZM4.57324 2.76465L3.46191 9.16309H5.83496C6.5877 9.16301 7.20712 8.97063 7.69336 8.58691C8.17958 8.20314 8.44629 7.69328 8.49316 7.05762C8.53699 6.46029 8.36007 5.98133 7.96191 5.62109C7.56348 5.26074 7.01367 5.0791 6.31348 5.07617L5.47461 5.07129L5.68945 3.83203H8.45801L8.64258 2.76465H4.57324ZM6.37988 6.13965C6.67557 6.15144 6.89656 6.23934 7.04297 6.40332C7.18945 6.56445 7.24414 6.77832 7.20605 7.04492C7.15626 7.37004 7.00771 7.62892 6.76172 7.82227C6.51866 8.01262 6.22736 8.10832 5.8877 8.1084L4.94727 8.10352L5.29004 6.13477L6.37988 6.13965Z" fill="#2F80ED"/>
</svg>
