<svg width="32" height="32" viewBox="0 0 32 32" fill="none" xmlns="http://www.w3.org/2000/svg">
<rect width="32" height="32" rx="16" fill="#F5F5F6"/>
<path d="M25.9114 10.2117C25.8656 9.82994 25.7688 9.45592 25.6237 9.09943C25.4217 8.58491 25.0322 8.16449 24.5324 7.92153C24.1371 7.73277 23.7046 7.63304 23.2659 7.62952C22.7389 7.64612 22.2261 7.80287 21.7811 8.08338C21.3361 8.36389 20.9751 8.75787 20.7361 9.22411C20.5344 9.57847 20.2103 10.2478 19.744 11.1927C19.3406 12.036 18.8644 13.0465 18.3948 14.0538H21.7811C22.0291 13.5256 22.2672 13.0203 22.4821 12.5708C22.6475 12.2427 22.9484 12.3641 22.9451 12.62V13.9095C22.9435 13.9324 22.9435 13.9554 22.9451 13.9783V23.7329C22.9424 23.8977 23.0057 24.0568 23.1209 24.1755C23.2362 24.2942 23.3941 24.3627 23.5602 24.3662H25.3823C25.5484 24.3627 25.7063 24.2942 25.8216 24.1755C25.9368 24.0568 26.0001 23.8977 25.9974 23.7329V12.387C26.0097 11.6608 25.9788 10.9344 25.9048 10.2117H25.9114Z" fill="#F08A00"/>
<path d="M16.2218 18.7369C16.0862 18.9797 15.8911 18.9568 15.7721 18.7369C15.7721 18.7369 14.7965 16.6239 13.7515 14.3928C13.229 13.2773 12.6867 12.1322 12.2403 11.2003C11.7938 10.2685 11.4631 9.58607 11.2647 9.23172C10.7389 8.24741 9.65424 7.59119 8.7316 7.64041C8.29324 7.64377 7.86093 7.74232 7.46505 7.92914C6.96506 8.17341 6.57563 8.59492 6.37376 9.11032C6.17694 9.63642 6.06533 10.1901 6.04307 10.7508C6.00339 11.2922 6.00008 11.8467 6.00008 12.3914V23.7372C5.99877 23.8194 6.01383 23.901 6.04441 23.9773C6.07498 24.0537 6.12046 24.1233 6.17824 24.1821C6.23601 24.241 6.30494 24.2879 6.38106 24.3202C6.45718 24.3526 6.53899 24.3696 6.62178 24.3705H8.44059C8.60666 24.367 8.7646 24.2985 8.87986 24.1798C8.99513 24.0612 9.05834 23.902 9.05568 23.7372V12.5817C9.05568 12.3192 9.34669 12.224 9.50543 12.5653C10.7588 15.1901 12.8124 19.5867 13.0008 20.0231C13.1727 20.429 13.3727 20.8226 13.5994 21.201C13.8102 21.5604 14.067 21.8912 14.3633 22.1853C14.5723 22.4147 14.8274 22.598 15.1122 22.7235C15.397 22.849 15.7051 22.9138 16.0168 22.9138C16.3284 22.9138 16.6365 22.849 16.9213 22.7235C17.2062 22.598 17.4613 22.4147 17.6702 22.1853C18.0826 21.7615 18.4263 21.2766 18.6888 20.7482C18.8574 20.4201 18.9732 20.1511 19.0195 20.0362C19.1418 19.777 20.0512 17.8084 21.0036 15.738C21.0301 15.679 21.0565 15.6232 21.0797 15.5674H17.7C16.8997 17.2769 16.2549 18.6746 16.2218 18.7336V18.7369Z" fill="#0100D2"/>
</svg>
